<?xml version="1.0" standalone="no"?><!DOCTYPE svg PUBLIC "-//W3C//DTD SVG 1.1//EN" "http://www.w3.org/Graphics/SVG/1.1/DTD/svg11.dtd"><svg t="1698826997453" class="icon" viewBox="0 0 1000 1000" version="1.1" xmlns="http://www.w3.org/2000/svg" p-id="12993" width="200" height="200" xmlns:xlink="http://www.w3.org/1999/xlink"><path d="M617.632 250.1934c0-14.213 11.6718-27.6022 27.5316-27.6022h0.8449805133718586c15.0383 0 26.7101 13.3891 26.7101 27.6022v57.677692286997924h102.7314877032657c5.0111 0 9.1755-2.5289 13.3668-5.8547 3.3396-4.1783 5.8561-8.3583 5.8561-15.0588v-84.42065050711577c0-6.6904-2.5165-10.8704-5.8561-15.0386-4.1913-3.346-8.3557-5.8429-13.3668-5.8429H531.5834565246606v126.21566543811036h86.04858217981455V250.19336310564688zM475.6384 181.6571H231.78336245128344c-5.846 0-10.0239 2.4969-14.19 5.8429-3.3396 4.1682-5.8594 8.3482-5.8594 15.0386v84.42065050711577c0 6.7005 2.5198 10.8805 5.8594 15.0588 4.1661 3.3258 8.344 5.8547 14.19 5.8547h95.21401693320792v-57.677692286997924c0-14.213 12.5185-27.6022 27.5551-27.6022h1.6580432737535278c15.0349 0 27.5769 13.3891 27.5769 27.6022v57.677692286997924h91.85089369708373V181.65707137284448zM999.0962 136.8876C999.0962 61.2944 937.8696 0 862.3219 0H0.23854320655825828L0 863.1006c0 75.6167 61.2384 136.8994 136.7743 136.8994h725.5476414460422c75.5476 0 136.7743-61.2827 136.7743-136.8994V136.8876274515079zM860.632 847.8569c0 15.0487-12.5218 27.5769-27.5551 27.5769H174.16845854051877c-15.045 0-27.5669-12.5282-27.5669-27.5769v-1.6948696564526111c0-15.0268 12.5218-27.5803 27.5669-27.5803h301.46989651928504v-63.497081057813894H196.7208708506921c-15.8799 0-27.5635-12.5955-27.5635-27.624v-1.6494713620833445c0-15.0504 11.6836-27.5803 27.5635-27.5803h278.919164090848v-16.72170509267978c0-15.0487 12.5319-27.6022 27.5669-27.6022h0.8349012229539041c15.0232 0 27.5433 12.5535 27.5433 27.6022v16.72170509267978h278.10442144873c15.8816 0 27.5551 12.5299 27.5551 27.5803v1.6494713620833445c0 15.0285-11.6735 27.624-27.5551 27.624h-278.10442144873v63.497081057813894h301.49341486359367c15.0333 0 27.5551 12.5552 27.5551 27.5803V847.8568642221086zM860.632 544.4163c0 15.0487-12.5218 27.5988-27.5551 27.5988H808.8630560408548c1.648 3.3258 2.4761 7.5143 2.4761 11.6842v33.44341018535956c0 15.0268-11.6735 27.5803-27.5551 27.5803h-0.8248219325359495c-15.0148 0-27.5551-12.5535-27.5551-27.5803v-33.44341018535956c0-4.1699 0.8231-8.36 2.5198-11.6842h-130.28826770595353c1.6698 3.3258 2.4946 7.5143 2.4946 11.6842v33.44341018535956c0 15.0268-12.4966 27.5803-27.5551 27.5803h-1.6698024459078082c-14.1883 0-27.5551-12.5535-27.5551-27.5803v-33.44341018535956c0-4.1699 0.845-8.36 2.4946-11.6842h-148.63089638489453c1.6614 3.3258 2.4946 7.5143 2.4946 11.6842v33.44341018535956c0 15.0268-12.5302 27.5803-27.5669 27.5803h-1.6462841015992475c-14.2101 0-27.5769-12.5535-27.5769-27.5803v-33.44341018535956c0-4.1699 0.845-8.36 2.5165-11.6842h-129.45168660126328c1.6715 3.3258 2.5064 7.5143 2.5064 11.6842v33.44341018535956c0 15.0268-12.5286 27.5803-27.5635 27.5803h-1.649643865071899c-15.0484 0-27.5669-12.5535-27.5669-27.5803v-33.44341018535956c0-4.1699 0.8366-8.36 2.4946-11.6842h-20.035949469157373c-15.045 0-27.5669-12.5501-27.5669-27.5988v-0.8491162465362784c0-15.0285 12.5218-27.5568 27.5669-27.5568h301.46989651928504v-47.64466923139006H196.7208708506921c-15.8799 0-27.5635-12.5535-27.5635-27.6022v-1.6713298001129915c0-15.8659 11.6836-27.5803 27.5635-27.5803h278.919164090848v-46.8073229130236H231.78336245128344c-10.8571 0-20.0494-2.507-29.2249-6.6887-18.3779-8.3516-32.5779-22.5646-40.0853-40.9594-5.0111-9.1839-6.6826-19.2169-6.6826-30.0974V125.56159371553099l619.6613 0.0891c31.7212 0 58.4498 19.2052 70.1451 47.6329 4.1863 9.1974 5.8796 19.2321 5.8796 29.2533v84.42065050711577c0 31.7704-17.5749 58.5234-45.9532 71.0567-10.0239 4.1817-20.0477 6.6887-30.0699 6.6887H531.5834565246606v46.8073229130236h278.10442144873c15.8816 0 27.5551 11.7161 27.5551 27.5803v1.6713298001129915c0 15.0487-11.6735 27.6022-27.5551 27.6022h-278.10442144873v47.64466923139006h301.49341486359367c15.0333 0 27.5551 12.5299 27.5551 27.5568V544.4163460762422z" p-id="12994" fill="#e51342"></path></svg>